<svg id="Layer_2" data-name="Layer 2" xmlns="http://www.w3.org/2000/svg" viewBox="0 0 2880 1200"><defs><style>.cls-1{fill:#19000b;opacity:0.25;}</style></defs><rect class="cls-1" x="39.45" y="875.13" width="159.05" height="305.59" transform="translate(-901.26 854.98) rotate(-73.78)"/><rect class="cls-1" x="417.26" y="814.95" width="138.16" height="265.45" transform="translate(-130.53 1816.06) rotate(-117.44)"/><rect class="cls-1" x="88.26" y="582.43" width="138.16" height="265.45" transform="translate(469.99 1377.32) rotate(167.13)"/><polygon class="cls-1" points="539.82 744.42 530.33 737.65 525.53 715.25 321.56 653.92 305.21 669.96 293.56 670.38 279.35 717.63 525.61 791.68 539.82 744.42"/><polygon class="cls-1" points="600.63 648.42 602.76 659.89 590.69 679.35 695.07 865 717.97 864.79 726.66 872.57 769.67 848.39 643.64 624.24 600.63 648.42"/><polygon class="cls-1" points="870.25 833.97 881.05 829.56 902.54 837.47 1063.31 697.75 1058.48 675.37 1064.35 665.29 1031.98 628.04 837.88 796.72 870.25 833.97"/><rect class="cls-1" x="641.26" y="398.43" width="138.16" height="265.45" transform="translate(-39.64 1004.7) rotate(-69.06)"/><rect class="cls-1" x="1942.59" y="570.13" width="159.05" height="305.59" transform="translate(763.04 2462.55) rotate(-73.78)"/><rect class="cls-1" x="2320.4" y="509.95" width="138.16" height="265.45" transform="translate(2920.41 3059.45) rotate(-117.44)"/><rect class="cls-1" x="1991.4" y="277.43" width="138.16" height="265.45" transform="translate(4160.56 351.15) rotate(167.13)"/><polygon class="cls-1" points="2442.96 439.42 2433.47 432.65 2428.67 410.25 2224.7 348.92 2208.36 364.96 2196.7 365.38 2182.49 412.63 2428.75 486.68 2442.96 439.42"/><polygon class="cls-1" points="2503.77 343.43 2505.91 354.89 2493.83 374.35 2598.22 560 2621.12 559.79 2629.8 567.57 2672.81 543.39 2546.78 319.24 2503.77 343.43"/><polygon class="cls-1" points="2773.39 528.97 2784.19 524.56 2805.69 532.47 2966.45 392.75 2961.62 370.37 2967.49 360.29 2935.12 323.05 2741.03 491.72 2773.39 528.97"/><rect class="cls-1" x="2544.4" y="93.43" width="138.16" height="265.45" transform="translate(1468.05 2586.12) rotate(-69.06)"/></svg>