<svg width="1920" height="1080" viewBox="0 0 1920 1080" fill="none" xmlns="http://www.w3.org/2000/svg">
<g clip-path="url(#clip0_1059_830)">
<path d="M275.012 61.9531C275.911 58.0399 280.37 53.4832 280.484 50.1789C280.599 46.8746 277.899 45.3922 273.119 38.2748C268.339 31.1574 266.707 6.77357 246.166 -7.38681C225.626 -21.5472 193.623 -16.2446 193.623 -16.2446C188.106 -15.6183 180.832 -22.3497 177.633 -16.679C174.447 -10.9976 162.797 -4.34693 156.544 -3.8282C150.291 -3.30947 136.745 7.56555 131.164 14.9293C125.583 22.293 106.682 55.0592 134.538 73.0546C162.393 91.0501 184.621 83.0793 184.621 83.0793C184.621 83.0793 189.518 115.729 203.305 123.542C217.082 131.368 231.857 143.033 255.116 119.518C278.35 96.0063 274.113 65.8662 275.012 61.9531ZM151.869 53.5944C142.274 46.7414 139.526 37.8127 144.323 30.4596C149.121 23.1064 169.112 12.4613 169.112 12.4613C169.112 12.4613 172.975 10.8575 175.29 12.0392C177.604 13.2209 177.722 13.4679 181.779 26.2334C185.837 38.999 191.308 49.1831 183.985 58.5837C176.662 67.9842 161.439 60.4505 151.855 53.5837L151.869 53.5944ZM213.439 41.5359C207.936 37.5371 201.894 9.94006 201.894 9.94006C201.894 9.94006 200.952 4.43727 206.379 4.18376C211.805 3.93024 223.258 -0.0788547 235.29 9.7599C247.322 19.5987 251.168 33.0637 250.688 36.239C250.208 39.4144 249.358 41.3026 245.881 42.4095C242.405 43.5163 217.452 44.4622 213.439 41.5359ZM244.152 99.5765C236.438 106.521 224.645 108.89 214.956 99.6563C205.252 90.4117 202.233 83.4235 207.931 71.3595C207.931 71.3595 211.725 62.1377 226.855 63.2776C241.986 64.4175 247.748 62.1406 250.843 65.306C253.913 68.4744 251.891 92.6289 244.163 99.5627L244.152 99.5765Z" fill="#3E000A" fill-opacity="0.9"/>
<path d="M1628.3 1046.6C1627.39 1050.73 1622.73 1055.58 1622.64 1059.06C1622.55 1062.55 1625.41 1064.09 1630.51 1071.54C1635.62 1079 1637.57 1104.69 1659.35 1119.42C1681.13 1134.16 1714.82 1128.27 1714.82 1128.27C1720.63 1127.56 1728.36 1134.59 1731.68 1128.58C1734.98 1122.56 1747.2 1115.44 1753.79 1114.84C1760.37 1114.23 1774.55 1102.64 1780.36 1094.83C1786.18 1087.02 1805.8 1052.3 1776.27 1033.59C1746.74 1014.88 1723.38 1023.49 1723.38 1023.49C1723.38 1023.49 1717.92 989.121 1703.31 981.014C1688.72 972.893 1673.03 960.735 1648.74 985.738C1624.46 1010.74 1629.21 1042.47 1628.3 1046.6ZM1758.18 1054.27C1768.36 1061.4 1771.34 1070.79 1766.35 1078.58C1761.36 1086.38 1740.39 1097.78 1740.39 1097.78C1740.39 1097.78 1736.33 1099.51 1733.88 1098.29C1731.43 1097.06 1731.3 1096.8 1726.91 1083.39C1722.51 1069.97 1716.65 1059.28 1724.28 1049.31C1731.91 1039.33 1748.03 1047.13 1758.19 1054.28L1758.18 1054.27ZM1693.39 1067.55C1699.23 1071.71 1705.86 1100.75 1705.86 1100.75C1705.86 1100.75 1706.9 1106.54 1701.18 1106.86C1695.46 1107.17 1683.43 1111.51 1670.65 1101.25C1657.88 1090.99 1653.7 1076.83 1654.18 1073.48C1654.65 1070.13 1655.53 1068.13 1659.19 1066.93C1662.84 1065.73 1689.14 1064.5 1693.39 1067.55ZM1660.48 1006.66C1668.54 999.264 1680.95 996.657 1691.25 1006.3C1701.57 1015.95 1704.81 1023.29 1698.92 1036.06C1698.92 1036.06 1695.01 1045.82 1679.05 1044.76C1663.09 1043.7 1657.04 1046.15 1653.74 1042.84C1650.48 1039.53 1652.38 1014.05 1660.47 1006.67L1660.48 1006.66Z" fill="#3E000A" fill-opacity="0.9"/>
<path d="M282.577 790.301C284.285 793.935 283.589 800.272 285.538 802.942C287.487 805.613 290.526 805.113 298.68 807.764C306.834 810.414 323.166 828.594 348.067 827.059C372.969 825.525 394.878 801.603 394.878 801.603C398.832 797.705 408.71 798.512 407.728 792.076C406.728 785.64 411.791 773.217 416.391 768.95C420.991 764.683 424.938 747.766 424.785 738.528C424.632 729.289 419.283 691.843 386.259 694.874C353.235 697.904 340.664 717.894 340.664 717.894C340.664 717.894 316.662 695.225 300.992 697.586C285.321 699.93 266.497 699.87 262.707 732.727C258.935 765.566 280.87 786.667 282.577 790.301ZM384.632 720.881C396.411 720.353 404.084 725.682 404.846 734.429C405.609 743.175 396.449 763.889 396.449 763.889C396.449 763.889 394.399 767.535 391.848 768.033C389.298 768.532 389.053 768.41 377.982 760.87C366.911 753.329 356.321 748.692 356.282 736.776C356.243 724.86 372.871 721.393 384.649 720.881L384.632 720.881ZM343.627 768.367C350.425 768.117 372.21 786.104 372.21 786.104C372.21 786.104 376.347 789.852 372.234 793.401C368.121 796.949 361.582 807.172 346.043 806.855C330.504 806.539 319.168 798.317 317.586 795.523C316.004 792.728 315.508 790.717 317.56 787.701C319.613 784.685 338.664 768.541 343.627 768.367ZM283.641 741.652C285.425 731.427 293.243 722.285 306.565 723.571C319.905 724.857 326.594 728.492 329.556 741.501C329.556 741.501 332.262 751.099 319.653 759.539C307.043 767.98 303.915 773.327 299.526 772.747C295.154 772.149 281.839 751.894 283.641 741.669L283.641 741.652Z" fill="#3E000A" fill-opacity="0.9"/>
<path d="M1669.21 290.369C1667.38 286.554 1668.05 279.869 1665.97 277.071C1663.89 274.274 1660.69 274.83 1652.07 272.112C1643.45 269.394 1626.07 250.383 1599.84 252.232C1573.6 254.081 1550.73 279.501 1550.73 279.501C1546.6 283.646 1536.18 282.887 1537.27 289.662C1538.39 296.437 1533.17 309.579 1528.36 314.12C1523.55 318.661 1519.54 336.529 1519.79 346.266C1520.04 356.003 1526.03 395.425 1560.81 391.923C1595.59 388.421 1608.65 367.233 1608.65 367.233C1608.65 367.233 1634.17 390.905 1650.66 388.27C1667.16 385.653 1687 385.542 1690.69 350.873C1694.36 316.222 1671.04 294.184 1669.21 290.369ZM1562.28 364.493C1549.87 365.16 1541.73 359.614 1540.85 350.401C1539.96 341.189 1549.42 319.27 1549.42 319.27C1549.42 319.27 1551.55 315.407 1554.24 314.858C1556.92 314.309 1557.18 314.435 1568.92 322.28C1580.66 330.125 1591.86 334.915 1592.02 347.475C1592.17 360.036 1574.67 363.845 1562.26 364.493L1562.28 364.493ZM1605.06 314.058C1597.9 314.384 1574.77 295.628 1574.77 295.628C1574.77 295.628 1570.37 291.715 1574.68 287.936C1578.98 284.158 1585.77 273.321 1602.16 273.51C1618.54 273.699 1630.56 282.26 1632.26 285.191C1633.95 288.122 1634.49 290.237 1632.36 293.435C1630.22 296.634 1610.29 313.828 1605.06 314.058ZM1668.54 341.659C1666.76 352.454 1658.6 362.164 1644.55 360.932C1630.47 359.701 1623.39 355.931 1620.14 342.246C1620.14 342.246 1617.2 332.154 1630.42 323.14C1643.63 314.125 1646.88 308.459 1651.51 309.031C1656.12 309.62 1670.35 330.846 1668.54 341.641L1668.54 341.659Z" fill="#3E000A" fill-opacity="0.9"/>
<path d="M18.323 397.208C16.1743 400.6 10.4552 403.416 9.24871 406.494C8.04224 409.572 10.0963 411.868 12.239 420.169C14.3818 428.471 7.81656 452.011 22.4833 472.193C37.15 492.376 69.0957 498.011 69.0957 498.011C74.5075 499.254 79.1309 508.02 84.0327 503.735C88.925 499.435 102.124 497.035 108.194 498.624C114.264 500.213 130.654 494.458 138.365 489.368C146.076 484.278 174.793 459.656 154.502 433.426C134.21 407.195 110.597 407.325 110.597 407.325C110.597 407.325 116.83 374.904 106.423 362.953C96.0308 350.992 85.973 335.08 56.2207 349.528C26.4926 363.981 20.4717 393.816 18.323 397.208ZM131.688 446.019C138.459 455.672 138.084 465.006 131.115 470.347C124.147 475.687 101.754 479.083 101.754 479.083C101.754 479.083 97.5771 479.312 95.7872 477.428C93.9974 475.544 93.9684 475.272 94.3839 461.884C94.7994 448.495 93.0245 437.072 103.056 430.64C113.087 424.207 124.941 436.372 131.697 446.034L131.688 446.019ZM69.6102 436.929C73.4717 442.529 69.9973 470.566 69.9973 470.566C69.9973 470.566 69.0569 476.069 63.8548 474.504C58.6528 472.94 46.5178 472.914 38.4399 459.636C30.362 446.358 31.2105 432.38 32.7182 429.545C34.2259 426.709 35.6557 425.211 39.3025 425.322C42.9494 425.434 66.7982 432.835 69.6102 436.929ZM59.9331 371.98C69.5166 367.994 81.4271 369.679 87.4967 381.608C93.5757 393.552 94.1011 401.147 84.7175 410.631C84.7175 410.631 78.0741 418.068 64.1825 411.964C50.291 405.86 44.1001 406.093 42.2329 402.079C40.3898 398.07 50.3254 375.96 59.9183 371.989L59.9331 371.98Z" fill="#3E000A" fill-opacity="0.9"/>
<path d="M1895.75 690.824C1897.98 687.229 1903.99 684.207 1905.23 680.951C1906.47 677.695 1904.29 675.295 1901.95 666.564C1899.61 657.834 1906.32 632.959 1890.67 611.822C1875.02 590.684 1841.29 585.042 1841.29 585.042C1835.58 583.782 1830.62 574.584 1825.5 579.147C1820.38 583.725 1806.49 586.378 1800.08 584.759C1793.66 583.141 1776.44 589.359 1768.36 594.797C1760.28 600.234 1730.24 626.454 1751.87 653.915C1773.5 681.375 1798.39 681.019 1798.39 681.019C1798.39 681.019 1792.12 715.252 1803.2 727.752C1814.27 740.263 1825.02 756.942 1856.25 741.436C1887.45 725.924 1893.52 694.419 1895.75 690.824ZM1775.8 640.428C1768.57 630.316 1768.88 620.473 1776.18 614.779C1783.47 609.085 1807.04 605.297 1807.04 605.297C1807.04 605.297 1811.45 605.017 1813.35 606.986C1815.25 608.955 1815.29 609.241 1814.97 623.358C1814.66 637.475 1816.64 649.499 1806.12 656.373C1795.61 663.246 1783 650.534 1775.79 640.412L1775.8 640.428ZM1841.32 649.432C1837.2 643.564 1840.6 613.98 1840.6 613.98C1840.6 613.98 1841.54 608.17 1847.04 609.771C1852.53 611.371 1865.33 611.285 1873.96 625.207C1882.6 639.128 1881.84 653.87 1880.28 656.872C1878.71 659.875 1877.22 661.468 1873.37 661.384C1869.53 661.301 1844.32 653.721 1841.32 649.432ZM1852.12 717.804C1842.06 722.095 1829.49 720.429 1822.98 707.911C1816.46 695.378 1815.84 687.377 1825.64 677.293C1825.64 677.293 1832.57 669.392 1847.27 675.697C1861.97 682.001 1868.5 681.699 1870.5 685.913C1872.48 690.121 1862.21 713.519 1852.14 717.794L1852.12 717.804Z" fill="#3E000A" fill-opacity="0.9"/>
<path d="M298.667 350.866C305.887 351.997 318.866 354.364 327.284 355.324C335.703 356.283 366.809 349.61 374.955 342.539C383.101 335.468 403.123 327.353 397.919 310.161C397.919 310.161 414.963 302.125 420.791 291.311C426.619 280.498 434.288 274.059 430.759 264.189C427.246 254.312 421.788 244.921 415.187 243.961C415.187 243.961 390.757 239.561 379.392 243.816C368.028 248.071 354.269 252.258 354.269 252.258C354.269 252.258 344.494 246.31 339.291 250.203C334.095 254.113 326.481 260.961 320.787 264.199C315.101 267.454 278.36 288.697 275.306 312.693C272.252 336.69 291.423 349.726 298.65 350.873L298.667 350.866ZM359.937 275.148L360.168 273.328L361.775 272.456C363.382 271.583 364.998 270.825 366.625 270.14C385.738 262.094 405.105 266.354 405.989 266.55L408.775 267.178L408.76 270.023C408.742 274.436 404.817 278.301 400.471 282.186C397.83 284.55 389.363 286.725 382.705 288.137C376.121 289.539 367.627 291 364.625 289.953C359 288.014 359.498 278.935 359.963 275.117L359.937 275.148ZM360.452 311.895C361.131 311.649 361.693 311.452 362.115 311.293C367.468 309.197 371.284 311.389 371.703 311.643L373.311 312.63L373.4 314.511C373.642 319.637 367.459 322.827 360.274 326.517C357.4 328.001 354.443 329.52 352.238 331.016C344.583 336.236 325.519 336.41 323.37 336.414L318.29 336.418L320.029 331.634C320.904 329.209 323.495 327.747 337.252 321.838C340.642 320.372 343.856 318.999 346.025 317.93C348.602 316.668 350.906 315.64 352.915 314.794C356.17 313.424 358.667 312.529 360.436 311.902L360.452 311.895ZM299.047 311C300.8 302.627 326.848 282.636 329.677 281.23C329.81 281.174 329.942 281.118 330.075 281.062C331.586 280.426 333.165 280.368 334.657 280.895C337.564 281.903 339.036 284.749 339.314 285.317L339.614 285.935L339.65 286.625C339.723 287.867 340.337 298.984 338.725 303.93C337.329 308.277 330.735 311.327 317.387 316.163C315.485 316.846 313.839 317.441 313.049 317.793C307.585 320.23 303.549 320.441 301.001 318.381C299.635 317.273 298.169 315.09 299.031 311.007L299.047 311Z" fill="#3E000A" fill-opacity="0.9"/>
<path d="M1600.68 742.283C1593.05 741.158 1579.35 738.783 1570.47 737.85C1561.59 736.917 1528.86 744.241 1520.34 751.77C1511.82 759.299 1490.79 768.039 1496.43 786.113C1496.43 786.113 1478.54 794.743 1472.5 806.195C1466.46 817.648 1458.43 824.507 1462.25 834.877C1466.04 845.256 1471.88 855.103 1478.85 856.055C1478.85 856.055 1504.64 860.465 1516.58 855.874C1528.52 851.283 1542.98 846.742 1542.98 846.742C1542.98 846.742 1553.34 852.92 1558.79 848.768C1564.23 844.598 1572.19 837.31 1578.17 833.843C1584.13 830.359 1622.66 807.625 1625.66 782.302C1628.65 756.979 1608.32 743.417 1600.69 742.275L1600.68 742.283ZM1536.8 822.666L1536.57 824.587L1534.88 825.521C1533.2 826.456 1531.5 827.27 1529.79 828.008C1509.72 836.666 1489.27 832.356 1488.33 832.158L1485.39 831.522L1485.38 828.523C1485.36 823.871 1489.46 819.761 1494 815.625C1496.77 813.108 1505.67 810.737 1512.68 809.186C1519.6 807.648 1528.54 806.028 1531.72 807.104C1537.66 809.096 1537.22 818.67 1536.77 822.699L1536.8 822.666ZM1535.91 783.936C1535.2 784.202 1534.61 784.415 1534.16 784.586C1528.54 786.846 1524.5 784.571 1524.05 784.307L1522.35 783.282L1522.24 781.299C1521.94 775.898 1528.42 772.478 1535.96 768.522C1538.98 766.931 1542.08 765.302 1544.39 763.705C1552.41 758.132 1572.51 757.77 1574.77 757.746L1580.13 757.694L1578.34 762.754C1577.44 765.318 1574.72 766.883 1560.27 773.239C1556.71 774.817 1553.34 776.293 1551.06 777.441C1548.36 778.795 1545.94 779.9 1543.83 780.81C1540.41 782.285 1537.79 783.251 1535.93 783.929L1535.91 783.936ZM1600.65 784.308C1598.88 793.151 1571.61 814.465 1568.64 815.974C1568.5 816.034 1568.36 816.094 1568.22 816.154C1566.63 816.839 1564.97 816.914 1563.39 816.373C1560.32 815.337 1558.74 812.351 1558.44 811.755L1558.12 811.106L1558.07 810.38C1557.99 809.071 1557.23 797.359 1558.89 792.13C1560.32 787.535 1567.24 784.259 1581.27 779.037C1583.26 778.299 1584.99 777.657 1585.82 777.278C1591.56 774.658 1595.81 774.398 1598.52 776.546C1599.97 777.702 1601.53 779.989 1600.66 784.3L1600.65 784.308Z" fill="#3E000A" fill-opacity="0.9"/>
<path d="M68.9911 816.081C70.1388 808.863 72.5366 795.889 73.5154 787.473C74.4942 779.057 67.8938 747.935 60.842 739.773C53.7902 731.61 45.7217 711.57 28.5177 716.734C28.5177 716.734 20.5209 699.671 9.72113 693.818C-1.07861 687.965 -7.50004 680.281 -17.3781 683.787C-27.2631 687.277 -36.6664 692.713 -37.6425 699.312C-37.6425 699.312 -42.0992 723.731 -37.8703 735.106C-33.6415 746.48 -29.4871 760.248 -29.4871 760.248C-29.4871 760.248 -35.458 770.01 -31.5767 775.222C-27.6787 780.426 -20.8493 788.057 -17.6239 793.758C-14.382 799.452 6.77465 836.242 30.7642 839.352C54.7537 842.462 67.8337 823.322 68.9981 816.097L68.9911 816.081ZM-6.58395 754.634L-8.40346 754.399L-9.27204 752.79C-10.1406 751.18 -10.8954 749.563 -11.5766 747.934C-19.5778 728.803 -15.2726 709.446 -15.0748 708.562L-14.44 705.778L-11.5951 705.799C-7.18207 705.828 -3.32667 709.762 0.548471 714.117C2.90689 716.763 5.06162 725.235 6.45864 731.896C7.8445 738.484 9.28594 746.981 8.23217 749.98C6.27977 755.601 -2.79785 755.081 -6.6145 754.607L-6.58395 754.634ZM30.1645 754.204C29.9198 753.525 29.7237 752.963 29.5665 752.54C27.4822 747.182 29.683 743.372 29.938 742.953L30.929 741.347L32.8107 741.263C37.9369 741.033 41.1126 747.223 44.786 754.416C46.2633 757.294 47.7755 760.255 49.2662 762.463C54.4678 770.13 54.5976 789.195 54.5965 791.343L54.5893 796.424L49.8086 794.674C47.3863 793.792 45.9299 791.199 40.0534 777.428C38.595 774.035 37.2298 770.817 36.1651 768.645C34.91 766.065 33.8869 763.759 33.0457 761.748C31.6832 758.49 30.7946 755.991 30.1715 754.221L30.1645 754.204ZM29.1264 815.607C20.757 813.834 0.827025 787.74 -0.572605 784.908C-0.628217 784.775 -0.683822 784.642 -0.739434 784.509C-1.37202 782.997 -1.42596 781.418 -0.895604 779.927C0.119381 777.022 2.96868 775.557 3.53744 775.28L4.15614 774.982L4.84583 774.948C6.0878 774.878 17.2059 774.29 22.1489 775.913C26.4923 777.319 29.5268 783.92 34.3317 797.28C35.0104 799.183 35.6014 800.83 35.9517 801.621C38.3762 807.091 38.5777 811.127 36.5119 813.67C35.4 815.034 33.214 816.495 29.1334 815.623L29.1264 815.607Z" fill="#3E000A" fill-opacity="0.9"/>
<path d="M1838.44 249.767C1837.3 257.386 1834.9 271.084 1833.94 279.964C1832.99 288.845 1840.24 321.588 1847.74 330.127C1855.25 338.665 1863.95 359.715 1882.03 354.111C1882.03 354.111 1890.62 372.023 1902.06 378.092C1913.5 384.161 1920.34 392.201 1930.72 388.413C1941.1 384.642 1950.97 378.825 1951.93 371.86C1951.93 371.86 1956.4 346.078 1951.84 334.128C1947.28 322.178 1942.77 307.703 1942.77 307.703C1942.77 307.703 1948.97 297.358 1944.83 291.9C1940.68 286.45 1933.41 278.47 1929.95 272.491C1926.48 266.519 1903.84 227.936 1878.52 224.881C1853.21 221.826 1839.6 242.124 1838.44 249.75L1838.44 249.767ZM1918.68 313.834L1920.6 314.065L1921.53 315.753C1922.46 317.441 1923.27 319.14 1924 320.85C1932.62 340.942 1928.26 361.386 1928.06 362.319L1927.42 365.26L1924.42 365.264C1919.76 365.275 1915.66 361.164 1911.54 356.609C1909.03 353.842 1906.68 344.932 1905.14 337.923C1903.62 330.993 1902.02 322.049 1903.11 318.878C1905.11 312.935 1914.68 313.398 1918.71 313.862L1918.68 313.834ZM1879.95 314.629C1880.21 315.343 1880.42 315.934 1880.59 316.377C1882.84 322.006 1880.56 326.043 1880.29 326.487L1879.26 328.189L1877.28 328.295C1871.88 328.585 1868.47 322.09 1864.53 314.542C1862.95 311.522 1861.33 308.415 1859.74 306.101C1854.18 298.068 1853.87 277.974 1853.85 275.709L1853.81 270.354L1858.86 272.154C1861.43 273.06 1862.98 275.781 1869.31 290.241C1870.88 293.805 1872.35 297.184 1873.49 299.463C1874.83 302.171 1875.93 304.592 1876.84 306.704C1878.31 310.126 1879.27 312.752 1879.94 314.612L1879.95 314.629ZM1880.47 249.896C1889.31 251.686 1910.56 279.006 1912.06 281.978C1912.12 282.118 1912.18 282.258 1912.24 282.397C1912.92 283.986 1912.99 285.649 1912.45 287.226C1911.41 290.297 1908.42 291.868 1907.82 292.165L1907.17 292.485L1906.44 292.528C1905.13 292.614 1893.42 293.337 1888.19 291.671C1883.6 290.23 1880.34 283.3 1875.15 269.263C1874.42 267.263 1873.78 265.532 1873.41 264.702C1870.8 258.959 1870.55 254.706 1872.7 252.006C1873.86 250.558 1876.15 248.998 1880.46 249.878L1880.47 249.896Z" fill="#3E000A" fill-opacity="0.9"/>
<path d="M467.918 375.029C469.306 369.18 452.255 362.036 451.868 361.989C451.903 362.024 441.645 355.264 436.697 354.066C431.749 352.868 431.992 357.621 430.82 359.984C428.476 364.711 428.459 369.922 432.151 376.513C438.286 387.467 438.766 387.547 440.641 393.002C442.503 398.455 441.977 403.085 441.977 403.085C441.977 403.085 437.3 390.037 430.152 383.235C427.85 381.04 425.764 378.604 424.025 376.067C417.627 384.419 409.264 399.471 409.264 399.471C409.264 399.471 400.92 416.95 397.259 441.669C396.507 448.026 396.483 453.633 397.744 457.239C402.738 471.411 404.618 479.007 404.284 485.546C403.95 492.084 403.251 493.193 403.251 493.193C403.251 493.193 398.882 472.228 392.151 463.368C391.196 462.104 390.452 460.697 389.861 459.234C380.383 469.576 373.318 482.7 370.543 487.101C368.613 490.152 366.988 493.092 365.548 496.027C362.384 503.781 359.81 512.855 359.541 522.311C359.152 535.768 363.237 543.456 363.209 551.613C363.178 559.132 362.287 566.992 361.521 566.346C361.448 566.289 361.382 566.191 361.305 566.006C360.351 563.579 361.164 560.083 357.751 551.208C355.721 545.893 353.219 539.082 351.282 530.766C351.183 531.271 351.103 531.751 351.018 532.258C351.018 532.258 338.481 547.073 330.368 560.559C328.162 564.221 318.873 578.865 314.621 584.804C310.235 590.916 306.396 593.521 309.454 600.597C312.526 607.676 331.513 616.645 338.295 617.735C343.499 618.571 346.171 616.573 352.265 604.137C357.934 592.566 361.531 575.389 362.372 571.756C375.198 561.675 385.5 542.879 390.985 533.186C401.557 514.528 402.009 507.39 403.312 499.157C403.312 499.157 427.34 455.45 435.252 440.097C441.43 428.102 443.595 407.469 443.595 407.469C443.595 407.469 449.497 397.744 454.818 391.051C459.648 384.984 467.382 377.036 467.855 374.989L467.918 375.029Z" fill="#3E000A" fill-opacity="0.9"/>
<path d="M1685.89 569.644C1690.87 565.721 1681.46 548.656 1681.17 548.363C1681.17 548.415 1677.12 536.115 1673.82 531.886C1670.52 527.657 1667.61 531.742 1665.09 532.928C1660.06 535.298 1656.63 539.593 1655.37 547.455C1653.27 560.522 1653.61 560.902 1651.59 566.637C1649.56 572.36 1646.09 575.841 1646.09 575.841C1646.09 575.841 1650.77 562 1649.32 551.7C1648.85 548.38 1648.72 545.002 1648.95 541.766C1638.19 544.479 1621.43 551.44 1621.43 551.44C1621.43 551.44 1603.09 560.419 1583.89 578.445C1579.1 583.205 1575.41 587.821 1574.09 591.626C1568.94 606.605 1565.52 614.112 1560.97 619.295C1556.41 624.478 1555.11 624.937 1555.11 624.937C1555.11 624.937 1565.22 604.755 1565.46 593.029C1565.5 591.359 1565.81 589.709 1566.28 588.114C1551.67 590.453 1537.25 596.672 1532.07 598.491C1528.48 599.748 1525.21 601.113 1522.1 602.595C1514.41 606.93 1506.34 612.743 1499.93 620.379C1490.8 631.242 1489.14 640.269 1483.78 646.989C1478.83 653.181 1472.95 659.092 1472.74 658.057C1472.72 657.962 1472.73 657.838 1472.78 657.634C1473.58 655.005 1476.54 652.649 1479.53 643.082C1481.34 637.361 1483.73 630.096 1487.57 621.958C1487.16 622.31 1486.78 622.654 1486.38 623.018C1486.38 623.018 1466.32 627.05 1450.79 632.881C1446.57 634.463 1429.31 640.48 1421.91 642.603C1414.28 644.781 1409.4 644.42 1407.3 652.269C1405.2 660.129 1415.02 679.969 1419.91 685.309C1423.66 689.407 1427.17 689.506 1440.35 683.22C1452.61 677.372 1466.83 665.535 1469.9 663.083C1487.1 663.151 1507.91 654.366 1518.79 649.948C1539.74 641.455 1544.79 635.853 1551.25 629.905C1551.25 629.905 1599.72 609.523 1616.31 602.019C1629.26 596.153 1644.56 580.523 1644.56 580.523C1644.56 580.523 1655.8 576.352 1664.58 574.306C1672.54 572.455 1684.14 570.951 1685.87 569.569L1685.89 569.644Z" fill="#3E000A" fill-opacity="0.9"/>
<path d="M175.8 711.002C172.187 706.197 155.799 714.753 155.515 715.021C155.565 715.016 143.811 718.59 139.729 721.633C135.647 724.675 139.459 727.524 140.528 729.935C142.668 734.757 146.667 738.099 154.096 739.469C166.443 741.745 166.811 741.427 172.206 743.468C177.591 745.519 180.817 748.881 180.817 748.881C180.817 748.881 167.791 744.145 157.991 745.3C154.832 745.67 151.626 745.719 148.562 745.436C150.902 755.693 157.141 771.743 157.141 771.743C157.141 771.743 165.26 789.328 181.94 807.933C186.351 812.572 190.65 816.172 194.23 817.505C208.325 822.716 215.37 826.121 220.187 830.555C225.004 834.988 225.411 836.235 225.411 836.235C225.411 836.235 206.489 826.204 195.374 825.724C193.79 825.651 192.233 825.325 190.73 824.845C192.632 838.744 198.218 852.563 199.831 857.509C200.946 860.943 202.17 864.071 203.508 867.053C207.453 874.441 212.791 882.217 219.895 888.465C230 897.359 238.525 899.127 244.783 904.359C250.548 909.186 256.027 914.892 255.041 915.068C254.95 915.088 254.832 915.076 254.641 915.017C252.165 914.202 249.994 911.342 240.985 908.3C235.599 906.467 228.76 904.041 221.125 900.219C221.45 900.618 221.768 900.986 222.104 901.376C222.104 901.376 225.495 920.485 230.689 935.341C232.098 939.378 237.432 955.878 239.285 962.944C241.186 970.222 240.738 974.84 248.136 977.007C255.545 979.165 274.574 970.285 279.744 965.763C283.712 962.294 283.881 958.962 278.205 946.329C272.924 934.577 262.005 920.836 259.746 917.869C260.183 901.561 252.302 881.63 248.347 871.217C240.744 851.166 235.541 846.258 230.039 839.997C230.039 839.997 211.758 793.592 204.999 777.697C199.716 765.282 185.224 750.437 185.224 750.437C185.224 750.437 181.511 739.684 179.76 731.314C178.178 723.723 177.002 712.695 175.729 711.024L175.8 711.002Z" fill="#3E000A" fill-opacity="0.9"/>
<path d="M1751.41 338.993C1755.26 344.024 1772.46 334.852 1772.75 334.568C1772.7 334.573 1785.06 330.696 1789.33 327.451C1793.61 324.206 1789.56 321.239 1788.41 318.707C1786.11 313.644 1781.87 310.159 1774.02 308.784C1760.99 306.5 1760.6 306.839 1754.89 304.737C1749.2 302.625 1745.77 299.111 1745.77 299.111C1745.77 299.111 1759.54 303.983 1769.86 302.674C1773.19 302.254 1776.57 302.173 1779.8 302.443C1777.24 291.652 1770.51 274.793 1770.51 274.793C1770.51 274.793 1761.79 256.332 1744.03 236.876C1739.34 232.027 1734.78 228.272 1730.99 226.9C1716.09 221.539 1708.63 218.015 1703.51 213.387C1698.39 208.758 1697.95 207.448 1697.95 207.448C1697.95 207.448 1717.99 217.845 1729.71 218.248C1731.38 218.309 1733.02 218.639 1734.61 219.13C1732.48 204.498 1726.46 189.984 1724.71 184.785C1723.51 181.176 1722.19 177.889 1720.75 174.759C1716.52 167.008 1710.82 158.861 1703.28 152.342C1692.54 143.06 1683.54 141.276 1676.89 135.819C1670.77 130.785 1664.94 124.821 1665.98 124.626C1666.08 124.604 1666.2 124.616 1666.4 124.676C1669.02 125.513 1671.34 128.507 1680.86 131.63C1686.56 133.512 1693.79 136.006 1701.87 139.963C1701.52 139.545 1701.19 139.16 1700.83 138.752C1700.83 138.752 1697.08 118.641 1691.46 103.03C1689.94 98.7882 1684.16 81.4447 1682.15 74.014C1680.07 66.3599 1680.5 61.488 1672.68 59.2728C1664.85 57.067 1644.88 66.6044 1639.47 71.4192C1635.32 75.1126 1635.17 78.6267 1641.27 91.8899C1646.95 104.229 1658.59 118.611 1661 121.717C1660.69 138.911 1669.18 159.848 1673.45 170.786C1681.65 191.852 1687.18 196.976 1693.03 203.526C1693.03 203.526 1712.74 252.27 1720.01 268.962C1725.69 281.999 1741.11 297.512 1741.11 297.512C1741.11 297.512 1745.12 308.812 1747.05 317.618C1748.78 325.606 1750.13 337.219 1751.48 338.969L1751.41 338.993Z" fill="#3E000A" fill-opacity="0.9"/>
<path d="M248.269 387.004C243.61 382.767 237.666 381.013 237.666 381.013C237.625 380.849 237.584 380.684 237.543 380.52C236.737 384.767 235.515 388.512 234.024 391.009C228.565 400.173 226.675 409.075 226.675 409.075C226.675 409.075 222.921 406.293 227.771 386.66C229.75 378.66 231.849 371.214 231.55 365.188C231.435 362.797 230.922 360.64 230.362 358.897C229.847 357.605 229.318 356.319 228.777 355.038C228.618 354.743 228.528 354.57 228.528 354.57L228.568 354.522C221.195 337.06 211.925 320.953 205.799 315.291C196.559 306.752 181.795 283.404 180.724 275.985C179.648 268.554 174.345 254.044 164.2 234.982C154.056 215.919 127.446 188.879 122.942 182.8C122.506 182.216 121.987 181.335 121.387 180.231C121.103 189.693 118.073 196.983 117.101 202.211C114.835 214.399 116.427 217.574 116.427 217.574C116.427 217.574 112.893 210.695 112.56 203.79C111.984 192.139 115.042 184.215 113.041 167.786C112.271 161.479 112.586 160.494 110.151 152.971C107.716 145.447 103.32 138.048 102.453 136.575C100.554 133.321 97.6486 137.479 97.6486 137.479C97.6486 137.479 91.1513 140.938 85.9258 151.092C83.0076 156.756 81.8781 163.539 81.8781 163.539C81.8781 163.539 80.0987 158.187 81.5972 150.789C81.9532 149.028 82.5646 147.261 83.2896 145.582C83.084 145.701 82.8656 145.826 82.66 145.946C77.1142 149.189 74.0076 149.432 69.8914 154.222C66.08 158.667 71.8463 162.803 71.8463 162.803C71.8463 162.803 76.0254 166.005 79.1664 172.434C89.8048 194.238 100.476 200.701 106.699 209.55C117.814 225.371 120.557 245.253 130.784 263.81C140.999 282.372 157.146 307.999 168.624 321.585C168.641 321.623 168.67 321.656 168.699 321.689C168.644 317.619 169.133 313.48 170.495 309.674C176.027 294.4 179.252 286.373 179.252 286.373C179.252 286.373 182.193 288.401 179.433 299.136C177.15 308.042 172.814 322.615 179.966 350.24C180.925 353.947 181.926 357.439 182.956 360.751C184.917 365.964 186.949 370.676 188.957 374.079C197.069 387.869 224.893 415.367 224.893 415.367C224.893 415.367 225.769 424.917 233.403 424.527C237.135 424.331 258.458 409.065 259.509 404.787C260.523 400.633 252.365 390.713 248.276 386.986L248.269 387.004Z" fill="#3E000A" fill-opacity="0.9"/>
<path d="M1653.46 703.72C1658.41 708.144 1664.69 709.938 1664.69 709.938C1664.74 710.11 1664.78 710.283 1664.83 710.455C1665.64 705.971 1666.89 702.013 1668.44 699.366C1674.11 689.657 1676.02 680.255 1676.02 680.255C1676.02 680.255 1680 683.152 1675.07 703.892C1673.06 712.344 1670.92 720.212 1671.29 726.561C1671.43 729.08 1671.99 731.35 1672.6 733.181C1673.16 734.539 1673.72 735.89 1674.31 737.235C1674.48 737.544 1674.57 737.726 1674.57 737.726L1674.53 737.777C1682.47 756.114 1692.39 773.006 1698.9 778.917C1708.72 787.833 1724.5 812.306 1725.69 820.116C1726.9 827.939 1732.62 843.184 1743.49 863.184C1754.36 883.183 1782.66 911.438 1787.47 917.804C1787.93 918.415 1788.49 919.339 1789.13 920.497C1789.34 910.52 1792.47 902.808 1793.44 897.288C1795.72 884.42 1794.01 881.088 1794.01 881.088C1794.01 881.088 1797.8 888.306 1798.22 895.582C1798.93 907.858 1795.78 916.238 1798.05 933.538C1798.92 940.178 1798.59 941.22 1801.23 949.128C1803.87 957.035 1808.57 964.794 1809.5 966.338C1811.53 969.75 1814.55 965.34 1814.55 965.34C1814.55 965.34 1821.37 961.634 1826.78 950.882C1829.81 944.884 1830.93 937.724 1830.93 937.724C1830.93 937.724 1832.86 943.349 1831.35 951.161C1830.99 953.021 1830.36 954.889 1829.61 956.666C1829.83 956.538 1830.06 956.404 1830.27 956.276C1836.09 952.806 1839.36 952.521 1843.65 947.434C1847.63 942.713 1841.51 938.407 1841.51 938.407C1841.51 938.407 1837.08 935.07 1833.71 928.323C1822.29 905.438 1810.98 898.726 1804.34 889.456C1792.48 872.882 1789.4 851.95 1778.45 832.485C1767.51 813.014 1750.25 786.151 1738.02 771.937C1738.01 771.897 1737.98 771.863 1737.94 771.828C1738.04 776.117 1737.56 780.485 1736.16 784.509C1730.47 800.662 1727.15 809.152 1727.15 809.152C1727.15 809.152 1724.03 807.043 1726.84 795.701C1729.16 786.292 1733.6 770.89 1725.8 741.838C1724.76 737.939 1723.67 734.268 1722.55 730.786C1720.44 725.31 1718.25 720.362 1716.1 716.794C1707.42 702.333 1677.84 673.606 1677.84 673.606C1677.84 673.606 1676.83 663.548 1668.78 664.03C1664.85 664.271 1642.52 680.562 1641.45 685.08C1640.42 689.469 1649.11 699.849 1653.46 703.74L1653.46 703.72Z" fill="#3E000A" fill-opacity="0.9"/>
<path d="M457.56 -51.4581C458.949 -57.3075 441.897 -64.4511 441.51 -64.4987C441.546 -64.4634 431.288 -71.2235 426.34 -72.4212C421.391 -73.6189 421.634 -68.8665 420.463 -66.5032C418.119 -61.7766 418.102 -56.5651 421.793 -49.9739C427.929 -39.0205 428.409 -38.9405 430.284 -33.4852C432.146 -28.0326 431.619 -23.4028 431.619 -23.4028C431.619 -23.4028 426.943 -36.4506 419.795 -43.2524C417.492 -45.4472 415.407 -47.8828 413.667 -50.4207C407.27 -42.0682 398.906 -27.016 398.906 -27.016C398.906 -27.016 390.562 -9.53689 386.902 15.1814C386.15 21.5383 386.126 27.1453 387.387 30.7512C392.381 44.9241 394.261 52.5202 393.927 59.0582C393.593 65.5963 392.893 66.7061 392.893 66.7061C392.893 66.7061 388.524 45.7404 381.794 36.8808C380.838 35.6163 380.095 34.2092 379.504 32.747C370.025 43.0882 362.961 56.2129 360.185 60.6139C358.255 63.6646 356.63 66.605 355.191 69.5393C352.026 77.2933 349.453 86.3678 349.183 95.8236C348.795 109.28 352.88 116.969 352.851 125.126C352.82 132.645 351.929 140.505 351.164 139.858C351.09 139.801 351.024 139.703 350.948 139.518C349.993 137.092 350.807 133.596 347.393 124.721C345.363 119.405 342.862 112.594 340.925 104.278C340.826 104.783 340.746 105.264 340.66 105.771C340.66 105.771 328.123 120.585 320.011 134.071C317.805 137.734 308.516 152.378 304.263 158.317C299.878 164.428 296.038 167.033 299.097 174.11C302.169 181.188 321.156 190.157 327.938 191.247C333.141 192.084 335.813 190.086 341.907 177.649C347.577 166.079 351.174 148.901 352.014 145.268C364.84 135.187 375.142 116.392 380.627 106.698C391.199 88.0409 391.651 80.9025 392.955 72.67C392.955 72.67 416.982 28.9629 424.895 13.6098C431.072 1.61475 433.237 -19.0182 433.237 -19.0182C433.237 -19.0182 439.139 -28.7433 444.46 -35.4365C449.291 -41.5033 457.025 -49.4517 457.497 -51.4988L457.56 -51.4581Z" fill="#3E000A" fill-opacity="0.9"/>
<path d="M1314.61 1078.6C1310.43 1083.36 1322.76 1098.44 1323.1 1098.68C1323.08 1098.63 1329.29 1109.99 1333.3 1113.56C1337.31 1117.12 1339.44 1112.58 1341.7 1110.96C1346.22 1107.72 1348.81 1102.87 1348.64 1094.91C1348.35 1081.68 1347.94 1081.37 1348.89 1075.36C1349.86 1069.37 1352.64 1065.32 1352.64 1065.32C1352.64 1065.32 1350.54 1079.78 1353.82 1089.64C1354.88 1092.83 1355.62 1096.12 1355.98 1099.35C1366.07 1094.74 1381.3 1084.87 1381.3 1084.87C1381.3 1084.87 1397.71 1072.72 1413.35 1051.53C1417.2 1045.98 1419.99 1040.77 1420.6 1036.79C1422.97 1021.13 1424.97 1013.13 1428.52 1007.21C1432.07 1001.29 1433.27 1000.6 1433.27 1000.6C1433.27 1000.6 1426.96 1022.28 1428.84 1033.86C1429.11 1035.5 1429.1 1037.18 1428.93 1038.84C1442.87 1033.9 1455.94 1025.18 1460.7 1022.45C1464 1020.57 1466.97 1018.64 1469.76 1016.62C1476.54 1010.97 1483.43 1003.79 1488.36 995.124C1495.38 982.791 1495.38 973.613 1499.44 966.035C1503.19 959.051 1507.91 952.176 1508.3 953.156C1508.34 953.246 1508.35 953.369 1508.33 953.58C1508.02 956.31 1505.53 959.162 1504.32 969.112C1503.58 975.064 1502.54 982.641 1500.23 991.34C1500.57 990.919 1500.88 990.512 1501.21 990.082C1501.21 990.082 1520.21 982.495 1534.43 973.956C1538.3 971.638 1554.19 962.603 1561.09 959.178C1568.19 955.66 1573.06 955.134 1573.71 947.034C1574.35 938.925 1561.12 921.183 1555.34 916.813C1550.91 913.46 1547.44 913.998 1535.61 922.559C1524.61 930.524 1512.76 944.734 1510.18 947.7C1493.26 950.737 1474.37 963.136 1464.47 969.445C1445.4 981.581 1441.45 988.002 1436.16 995.02C1436.16 995.02 1392.17 1023.82 1377.21 1034.19C1365.52 1042.3 1353.3 1060.44 1353.3 1060.44C1353.3 1060.44 1343 1066.57 1334.73 1070.17C1327.23 1073.42 1316.1 1076.99 1314.65 1078.67L1314.61 1078.6Z" fill="#3E000A" fill-opacity="0.9"/>
<path d="M-36.8435 540.815C-42.855 540.75 -46.0632 558.957 -46.0243 559.345C-45.9977 559.302 -50.3296 570.798 -50.4068 575.889C-50.484 580.979 -45.9021 579.695 -43.3386 580.316C-38.2115 581.56 -33.1245 580.428 -27.5095 575.374C-18.1785 566.974 -18.2063 566.488 -13.2987 563.457C-8.39075 560.439 -3.75887 559.931 -3.75887 559.931C-3.75887 559.931 -15.4545 567.369 -20.5127 575.841C-22.1458 578.571 -24.0617 581.142 -26.1535 583.398C-16.596 587.797 -0.0702555 592.635 -0.0702555 592.635C-0.0702555 592.635 18.8185 596.92 43.7356 595.041C50.1018 594.372 55.5761 593.159 58.8152 591.134C71.5383 583.138 78.5328 579.63 84.9836 578.514C91.4344 577.398 92.6711 577.836 92.6711 577.836C92.6711 577.836 73.1847 586.72 66.0272 595.238C65.0045 596.449 63.796 597.484 62.5001 598.383C74.6767 605.348 89.0361 609.345 93.9407 611.082C97.3418 612.292 100.568 613.228 103.748 613.986C112.009 615.362 121.427 615.872 130.71 614.05C143.921 611.462 150.52 605.782 158.482 604.011C165.822 602.383 173.685 601.519 173.224 602.408C173.185 602.493 173.104 602.579 172.94 602.694C170.784 604.16 167.194 604.138 159.29 609.424C154.553 612.576 148.461 616.518 140.777 620.241C141.292 620.226 141.778 620.198 142.292 620.169C142.292 620.169 159.506 629.131 174.448 634.071C178.507 635.415 194.839 641.246 201.569 644.085C208.497 647.015 211.885 650.185 218.113 645.642C224.34 641.085 228.902 620.587 228.469 613.732C228.138 608.472 225.6 606.306 212.126 603.104C199.59 600.126 182.042 600.405 178.313 600.386C165.652 590.098 145.048 584.194 134.384 580.982C113.854 574.784 106.792 575.917 98.4746 576.46C98.4746 576.46 50.5455 562.662 33.8255 558.329C20.7636 554.948 0.160985 557.386 0.160985 557.386C0.160985 557.386 -10.6261 553.774 -18.3278 550.059C-25.3102 546.686 -34.7684 540.894 -36.8693 540.885L-36.8435 540.815Z" fill="#3E000A" fill-opacity="0.9"/>
<path d="M1952.56 538.938C1958.9 538.95 1962.11 519.729 1962.07 519.32C1962.04 519.365 1966.5 507.207 1966.53 501.84C1966.57 496.474 1961.75 497.871 1959.04 497.239C1953.63 495.976 1948.28 497.217 1942.4 502.596C1932.65 511.537 1932.68 512.049 1927.53 515.29C1922.39 518.517 1917.51 519.095 1917.51 519.095C1917.51 519.095 1929.77 511.146 1935.02 502.169C1936.72 499.276 1938.72 496.548 1940.9 494.15C1930.78 489.603 1913.32 484.656 1913.32 484.656C1913.32 484.656 1893.37 480.316 1867.12 482.529C1860.42 483.293 1854.66 484.622 1851.26 486.787C1837.93 495.334 1830.59 499.097 1823.8 500.333C1817.01 501.569 1815.7 501.12 1815.7 501.12C1815.7 501.12 1836.16 491.574 1843.62 482.528C1844.69 481.242 1845.95 480.139 1847.31 479.18C1834.41 471.951 1819.24 467.872 1814.05 466.087C1810.46 464.843 1807.05 463.886 1803.69 463.118C1794.97 461.743 1785.03 461.294 1775.27 463.301C1761.36 466.152 1754.46 472.2 1746.09 474.141C1738.36 475.925 1730.08 476.909 1730.56 475.968C1730.6 475.878 1730.69 475.787 1730.86 475.663C1733.12 474.098 1736.9 474.089 1745.18 468.443C1750.15 465.076 1756.53 460.865 1764.6 456.869C1764.05 456.889 1763.54 456.923 1763 456.958C1763 456.958 1744.77 447.671 1728.98 442.604C1724.68 441.225 1707.42 435.23 1700.29 432.301C1692.96 429.277 1689.36 425.966 1682.84 430.813C1676.32 435.675 1671.7 457.323 1672.22 464.546C1672.62 470.087 1675.32 472.346 1689.55 475.596C1702.79 478.619 1721.28 478.162 1725.22 478.147C1738.66 488.873 1760.43 494.904 1771.7 498.192C1793.4 504.534 1800.83 503.274 1809.59 502.623C1809.59 502.623 1860.24 516.722 1877.91 521.134C1891.71 524.576 1913.4 521.815 1913.4 521.815C1913.4 521.815 1924.81 525.522 1932.96 529.366C1940.35 532.857 1950.38 538.873 1952.59 538.864L1952.56 538.938Z" fill="#3E000A" fill-opacity="0.9"/>
</g>
<defs>
<clipPath id="clip0_1059_830">
<rect width="1920" height="1080" fill="white"/>
</clipPath>
</defs>
</svg>
