<svg width="1920" height="1080" viewBox="0 0 1920 1080" fill="none" xmlns="http://www.w3.org/2000/svg">
<g clip-path="url(#clip0_1055_1137)">
<path d="M378.4 -36.0002L136 89.584L201.322 215.667L443.722 90.0832L378.4 -36.0002Z" fill="#3F000B"/>
<path d="M1641.29 1109.76L1883.69 984.171L1818.36 858.088L1575.96 983.672L1641.29 1109.76Z" fill="#3F000B"/>
<path d="M157.5 250.256L-112.104 293.177L-89.7793 433.411L179.826 390.49L157.5 250.256Z" fill="#3F000B"/>
<path d="M1862.19 823.499L2131.79 780.578L2109.47 640.344L1839.86 683.265L1862.19 823.499Z" fill="#3F000B"/>
<path d="M339.644 565.026L84.4678 468L34.0001 600.729L289.176 697.755L339.644 565.026Z" fill="#3F000B"/>
<path d="M1680.04 508.729L1935.22 605.755L1985.69 473.026L1730.51 376L1680.04 508.729Z" fill="#3F000B"/>
<path d="M427.897 304.139L415.962 307.262L394.453 295.889L206.58 420.204L208.619 444.434L201.076 454.209L230.032 497.951L456.845 347.92L427.897 304.139Z" fill="#3F000B"/>
<path d="M1591.79 769.616L1603.72 766.493L1625.23 777.866L1813.11 653.551L1811.07 629.32L1818.61 619.546L1789.65 575.804L1562.84 725.835L1591.79 769.616Z" fill="#3F000B"/>
<path d="M393.073 191.962L402.885 199.44L407.176 223.389L620.835 294.806L638.667 278.274L651.013 278.194L667.633 228.439L409.729 142.19L393.073 191.962Z" fill="#3F000B"/>
<path d="M1626.61 881.793L1616.8 874.315L1612.51 850.366L1398.85 778.949L1381.02 795.481L1368.67 795.561L1352.05 845.316L1609.96 931.565L1626.61 881.793Z" fill="#3F000B"/>
<path d="M633.169 102.045L631.08 89.886L644.254 69.4315L536.498 -128.405L512.181 -128.45L503.089 -136.802L457.027 -111.702L587.068 127.134L633.169 102.045Z" fill="#3F000B"/>
<path d="M1386.52 971.71L1388.61 983.869L1375.43 1004.32L1483.19 1202.16L1507.51 1202.2L1516.6 1210.56L1562.66 1185.46L1432.62 946.621L1386.52 971.71Z" fill="#3F000B"/>
</g>
<defs>
<clipPath id="clip0_1055_1137">
<rect width="1920" height="1080" fill="white"/>
</clipPath>
</defs>
</svg>
