<svg fill="none" height="1080" viewBox="0 0 1920 1080" width="1920" xmlns="http://www.w3.org/2000/svg" xmlns:xlink="http://www.w3.org/1999/xlink"><clipPath id="a"><path d="m0 0h1920v1080h-1920z"/></clipPath><g clip-path="url(#a)" fill="#3f000b"><path d="m378.4-36-242.4 125.5841 65.322 126.0829 242.4-125.5837z"/><path d="m1641.29 1109.76 242.4-125.589-65.33-126.083-242.4 125.584z"/><path d="m157.501 250.256-269.605 42.921 22.3251 140.234 269.6049-42.921z"/><path d="m1862.19 823.499 269.6-42.921-22.32-140.234-269.61 42.921z"/><path d="m339.644 565.026-255.1763-97.026-50.4677 132.729 255.176 97.026z"/><path d="m1680.04 508.729 255.18 97.026 50.47-132.729-255.18-97.026z"/><path d="m427.897 304.139-11.935 3.123-21.509-11.373-187.873 124.315 2.039 24.23-7.543 9.775 28.956 43.742 226.813-150.031z"/><path d="m1591.79 769.616 11.93-3.123 21.51 11.373 187.88-124.315-2.04-24.231 7.54-9.774-28.96-43.742-226.81 150.031z"/><path d="m393.073 191.962 9.812 7.479 4.291 23.948 213.659 71.417 17.832-16.532 12.346-.08 16.62-49.755-257.904-86.249z"/><path d="m1626.61 881.793-9.81-7.479-4.29-23.948-213.66-71.417-17.83 16.532-12.35.08-16.62 49.755 257.91 86.249z"/><path d="m633.169 102.045-2.089-12.159 13.174-20.4545-107.756-197.8365-24.317-.045-9.092-8.352-46.062 25.1 130.041 238.836z"/><path d="m1386.52 971.71 2.09 12.159-13.18 20.451 107.76 197.84 24.32.04 9.09 8.36 46.06-25.1-130.04-238.839z"/></g></svg>