<svg width="1920" height="1080" viewBox="0 0 1920 1080" fill="none" xmlns="http://www.w3.org/2000/svg">
<g clip-path="url(#clip0_1059_330)">
<path d="M1608.56 186.539C1611.02 202.327 1621.42 214.451 1629.55 222.115C1641.33 233.214 1653.01 237.171 1655.05 249.913L1632.63 256.682C1628.17 258.027 1625.38 262.462 1626.1 267.066L1643.75 380.483C1644.46 385.091 1648.47 388.464 1653.13 388.391L1676.54 388.029C1678.48 400.792 1668.56 408.106 1660.7 422.266C1655.27 432.04 1649.06 446.746 1651.51 462.538C1669.93 444.677 1716.46 467.258 1737.19 449.203C1734.73 433.408 1724.34 421.287 1716.2 413.626C1704.42 402.528 1692.74 398.57 1690.7 385.829L1713.12 379.056C1717.58 377.711 1720.37 373.28 1719.66 368.672L1702 255.258C1701.29 250.65 1697.28 247.277 1692.62 247.347L1669.21 247.712C1667.28 234.956 1677.2 227.632 1685.05 213.475C1690.48 203.708 1696.7 188.992 1694.24 173.204C1675.82 191.065 1629.29 168.484 1608.56 186.539" fill="#724990"/>
<path d="M801.688 431.477C791.816 441.178 788.532 454.616 787.244 464.21C785.382 478.107 788.492 488.324 780.553 496.19L764.472 483.831C761.273 481.371 756.74 481.642 753.865 484.475L682.948 554.155C680.067 556.986 679.714 561.507 682.12 564.753L694.195 581.047C686.188 588.852 676.031 585.562 662.097 587.179C652.48 588.295 638.993 591.347 629.116 601.045C650.987 604.994 658.581 649.138 681.756 654.615C691.631 644.909 694.917 631.479 696.2 621.882C698.062 607.985 694.952 597.768 702.891 589.902L718.977 602.263C722.177 604.724 726.703 604.45 729.585 601.62L800.496 531.937C803.377 529.106 803.729 524.585 801.329 521.342L789.249 505.044C797.253 497.246 807.418 500.533 821.346 498.913C830.961 497.802 844.456 494.748 854.328 485.047C832.456 481.098 824.862 436.954 801.688 431.477" fill="#724990"/>
<path d="M1476.5 305.539C1466.16 306.079 1457.66 311.983 1452.18 316.721C1444.25 323.583 1440.93 330.852 1432.58 331.323L1429.7 316.427C1429.12 313.461 1426.45 311.372 1423.43 311.532L1349.16 315.418C1346.14 315.578 1343.7 317.93 1343.44 320.939L1342.13 336.056C1333.78 336.456 1329.71 329.578 1321.11 323.578C1315.17 319.44 1306.09 314.457 1295.76 314.996C1306.06 328.05 1288.43 356.543 1298.7 371.104C1309.03 370.565 1317.54 364.66 1323.02 359.922C1330.95 353.06 1334.27 345.792 1342.62 345.32L1345.5 360.216C1346.07 363.183 1348.74 365.272 1351.76 365.112L1426.04 361.225C1429.06 361.065 1431.49 358.714 1431.76 355.705L1433.07 340.587C1441.42 340.187 1445.48 347.065 1454.09 353.065C1460.03 357.204 1469.1 362.186 1479.44 361.647C1469.14 348.594 1486.77 320.1 1476.5 305.539" fill="#724990"/>
<path d="M551.295 525.288C542.207 520.333 531.869 520.908 524.722 522.075C514.37 523.765 507.733 528.217 500.376 524.246L505.726 510.049C506.789 507.22 505.608 504.042 502.953 502.597L437.646 467.003C434.991 465.558 431.685 466.285 429.884 468.71L420.847 480.9C413.524 476.867 413.665 468.879 409.477 459.261C406.588 452.625 401.466 443.626 392.378 438.671C394.313 455.185 364.37 470.222 365.492 488.006C374.581 492.961 384.918 492.386 392.066 491.219C402.417 489.529 409.055 485.078 416.412 489.048L411.062 503.246C409.999 506.074 411.18 509.252 413.835 510.697L479.141 546.292C481.796 547.737 485.103 547.01 486.904 544.584L495.941 532.394C503.264 536.428 503.123 544.416 507.31 554.034C510.2 560.669 515.322 569.668 524.41 574.623C522.475 558.109 552.418 543.072 551.295 525.288" fill="#724990"/>
<path d="M1659.86 546.827C1653.33 540.23 1644.32 538.056 1637.88 537.214C1628.55 535.995 1621.71 538.105 1616.42 532.794L1624.67 521.981C1626.32 519.828 1626.13 516.794 1624.22 514.865L1577.33 467.463C1575.42 465.534 1572.39 465.307 1570.22 466.928L1559.32 475.065C1554.07 469.714 1556.25 462.894 1555.14 453.552C1554.37 447.109 1552.29 438.063 1545.77 431.466C1543.16 446.139 1513.58 451.329 1509.95 466.881C1516.48 473.478 1525.5 475.652 1531.94 476.495C1541.26 477.714 1548.1 475.603 1553.4 480.915L1545.14 491.727C1543.5 493.88 1543.69 496.914 1545.6 498.843L1592.48 546.245C1594.39 548.174 1597.42 548.402 1599.59 546.781L1610.49 538.643C1615.74 543.994 1613.56 550.815 1614.68 560.156C1615.45 566.6 1617.52 575.646 1624.05 582.242C1626.65 567.569 1656.23 562.38 1659.86 546.827" fill="#724990"/>
<path d="M546.271 783.049C544.166 774.01 537.624 767.434 532.582 763.345C525.277 757.423 518.341 755.635 516.615 748.339L529.311 743.452C531.84 742.48 533.265 739.794 532.651 737.153L517.539 672.213C516.925 669.572 514.462 667.79 511.767 668.035L498.216 669.256C496.549 661.949 501.976 657.28 505.922 648.739C508.641 642.848 511.612 634.055 509.507 625.017C499.604 636.152 471.688 625.079 460.449 636.426C462.554 645.464 469.097 652.04 474.139 656.129C481.443 662.051 488.38 663.839 490.106 671.135L477.409 676.022C474.88 676.994 473.455 679.68 474.069 682.322L489.181 747.261C489.795 749.902 492.258 751.684 494.954 751.439L508.505 750.218C510.171 757.525 504.744 762.194 500.799 770.735C498.079 776.626 495.108 785.419 497.213 794.458C507.116 783.322 535.032 794.395 546.271 783.049" fill="#724990"/>
<path d="M1341.83 466.978C1341.45 481.98 1349.03 494.934 1355.26 503.375C1364.29 515.612 1374.41 521.223 1374.16 533.344L1352.31 535.839C1347.95 536.333 1344.64 539.962 1344.52 544.34L1341.79 652.115C1341.68 656.489 1344.82 660.283 1349.13 660.997L1370.83 664.595C1370.48 676.712 1360.08 681.81 1350.44 693.574C1343.79 701.697 1335.58 714.245 1335.2 729.246C1355.22 715.836 1394.42 744.51 1416.61 731.308C1416.99 716.307 1409.42 703.353 1403.19 694.911C1394.16 682.674 1384.04 677.064 1384.29 664.943L1406.14 662.447C1410.49 661.947 1413.81 658.325 1413.93 653.947L1416.65 546.172C1416.76 541.798 1413.63 538.004 1409.31 537.29L1387.61 533.691C1387.97 521.575 1398.37 516.473 1408.01 504.719C1414.66 496.596 1422.87 484.048 1423.25 469.047C1403.23 482.457 1364.03 453.783 1341.84 466.985" fill="#724990"/>
<path d="M317.186 548.447C309.004 561.026 308.669 576.027 309.556 586.482C310.838 601.635 316.524 611.718 309.958 621.91L290.038 612.591C286.07 610.731 281.346 612.086 278.953 615.753L220.179 706.133C217.793 709.801 218.473 714.673 221.778 717.543L238.377 731.975C231.727 742.109 220.203 741.008 205.83 745.979C195.908 749.415 182.338 755.801 174.156 768.38C198.238 767.446 216.61 812.404 242.43 812.783C250.612 800.203 250.947 785.202 250.06 774.747C248.779 759.594 243.093 749.511 249.659 739.319L269.579 748.639C273.547 750.492 278.27 749.143 280.663 745.476L339.438 655.097C341.824 651.429 341.143 646.557 337.838 643.686L321.24 629.255C327.89 619.12 339.421 620.222 353.787 615.257C363.708 611.822 377.278 605.436 385.46 592.856C361.378 593.791 343.006 548.833 317.186 548.454" fill="#724990"/>
<path d="M944.645 417.118C958.446 433.92 979.016 440.945 993.851 444.285C1015.34 449.14 1031.76 445.698 1042.96 459.225L1021.37 482.666C1017.07 487.333 1016.87 494.453 1020.89 499.358L1120.03 620.052C1124.05 624.957 1131.08 626.142 1136.49 622.83L1163.68 606.21C1174.77 619.827 1168.21 635.264 1168.78 657.292C1169.19 672.492 1172.08 694.03 1185.87 710.835C1195.11 677.165 1265.24 671.447 1277.05 635.948C1263.25 619.146 1242.68 612.121 1227.85 608.781C1206.36 603.926 1189.94 607.368 1178.74 593.841L1200.33 570.4C1204.63 565.733 1204.83 558.613 1200.8 553.708L1101.67 433.014C1097.65 428.109 1090.62 426.924 1085.2 430.236L1058.01 446.859C1046.93 433.239 1053.49 417.802 1052.91 395.784C1052.51 380.584 1049.61 359.04 1035.82 342.235C1026.58 375.911 956.448 381.622 944.639 417.121" fill="#724990"/>
<path d="M-151.032 458.856C-135.901 474.471 -114.825 479.788 -99.7667 481.901C-77.95 484.979 -61.87 480.204 -49.5979 492.768L-69.1949 517.898C-73.0976 522.902 -72.7133 530.014 -68.3025 534.574L40.3888 646.74C44.7997 651.3 51.8984 651.905 57.0243 648.161L82.7549 629.369C94.9255 642.031 89.6499 657.955 92.0297 679.861C93.6776 694.977 98.3228 716.205 113.448 731.824C119.899 697.51 189.325 686.067 198.186 649.719C183.055 634.104 161.979 628.788 146.92 626.675C125.104 623.596 109.024 628.372 96.7515 615.808L116.349 590.677C120.251 585.674 119.867 578.561 115.456 574.002L6.76486 461.836C2.354 457.276 -4.74478 456.671 -9.87073 460.415L-35.6075 479.21C-47.7719 466.544 -42.4963 450.621 -44.8784 428.725C-46.5263 413.609 -51.1753 392.374 -66.3001 376.756C-72.7475 411.076 -142.177 422.513 -151.038 458.86" fill="#724990"/>
<path d="M1961.57 191.825C1946.73 212.655 1945.07 238.167 1945.83 256.041C1946.92 281.938 1955.86 299.519 1943.95 316.395L1910.71 299.08C1904.09 295.632 1895.94 297.592 1891.61 303.669L1785.01 453.298C1780.68 459.375 1781.49 467.719 1786.91 472.846L1814.14 498.613C1802.08 515.394 1782.54 512.681 1757.71 520.102C1740.57 525.232 1717 535.129 1702.15 555.953C1743.23 556.097 1771.25 633.973 1815.19 636.483C1830.03 615.653 1831.68 590.141 1830.93 572.268C1829.84 546.371 1820.89 528.79 1832.8 511.914L1866.05 529.229C1872.67 532.676 1880.81 530.717 1885.14 524.64L1991.75 375.011C1996.07 368.933 1995.27 360.589 1989.85 355.459L1962.62 329.692C1974.68 312.921 1994.22 315.63 2019.05 308.213C2036.19 303.083 2059.76 293.186 2074.6 272.356C2033.53 272.211 2005.5 194.329 1961.56 191.829" fill="#724990"/>
<path d="M978.943 598.86C961.639 606.185 950.786 621.514 944.38 632.989C935.096 649.615 933.93 664.06 919.982 670.038L905.84 646.409C903.023 641.704 897.172 639.796 892.124 641.933L767.83 694.551C762.782 696.688 760.076 702.22 761.499 707.517L768.62 734.118C754.616 739.979 743.433 730.763 725.036 725.851C712.336 722.466 693.778 719.59 676.475 726.91C702.122 742.805 689.692 802.325 716.222 820.804C733.526 813.479 744.379 798.15 750.785 786.674C760.069 770.048 761.236 755.603 775.183 749.625L789.326 773.255C792.142 777.959 797.994 779.868 803.041 777.73L927.335 725.113C932.383 722.975 935.089 717.443 933.671 712.147L926.55 685.546C940.549 679.689 951.738 688.906 970.129 693.818C982.829 697.203 1001.39 700.078 1018.69 692.754C993.043 676.858 1005.47 617.333 978.938 598.86" fill="#724990"/>
</g>
<defs>
<clipPath id="clip0_1059_330">
<rect width="1920" height="1080" fill="white"/>
</clipPath>
</defs>
</svg>
