<svg width="1920" height="1080" viewBox="0 0 1920 1080" fill="none" xmlns="http://www.w3.org/2000/svg">
<g clip-path="url(#clip0_1059_803)">
<path d="M6.26014 733.701C-23.6714 735.685 -46.6003 696.261 -14.6305 652.619C-3.92275 637.998 8.90826 624.657 20.1558 610.76C41.6791 584.246 47.5024 564.185 50.6374 545.31C50.8149 544.203 51.4085 542.821 52.9977 542.711C54.5765 542.607 55.3364 543.897 55.6573 544.977C61.2516 563.271 69.6862 582.385 94.5076 605.826C107.485 618.112 121.969 629.642 134.519 642.724C171.966 681.763 154.425 723.874 124.518 725.859L6.25735 733.706L6.26014 733.701Z" fill="#EFEFEF" fill-opacity="0.4"/>
<path d="M1966.75 595.665C1970.2 579.629 1971.59 562.416 1974.27 546.279C1979.33 515.441 1989.14 500.935 1999.73 489.28C2000.36 488.6 2000.92 487.445 2000.09 486.065C1999.25 484.672 1997.96 484.633 1997.07 484.879C1981.86 488.878 1964.49 490.878 1934.88 481.072C1919.38 475.965 1903.52 469.222 1887.76 464.86C1858.4 456.734 1840.52 467.256 1835.06 482.69C1826.12 504.176 1832.31 540.478 1852.84 575.048C1879.62 620.159 1920.65 645.208 1944.47 630.99C1944.5 630.971 1944.54 630.947 1944.57 630.927C1954.28 625.671 1962.72 614.392 1966.75 595.665Z" fill="#EFEFEF" fill-opacity="0.4"/>
<path d="M434.593 648.905C436.254 637.232 436.374 624.812 437.465 613.098C439.527 590.724 445.866 579.828 452.904 570.942C453.324 570.423 453.675 569.568 453.001 568.617C452.322 567.66 451.391 567.697 450.761 567.917C439.989 571.538 427.557 573.835 405.678 568.265C394.223 565.369 382.426 561.315 370.819 558.97C349.211 554.595 336.849 563.028 333.705 574.372C328.363 590.23 334.7 615.971 351.302 639.755C372.964 670.795 403.873 686.732 420.333 675.357C420.355 675.342 420.377 675.322 420.4 675.308C427.143 671.055 432.649 662.544 434.592 648.911L434.593 648.905Z" fill="#EFEFEF" fill-opacity="0.4"/>
<path d="M482.516 23.4224C478.972 34.6683 476.826 46.9019 473.839 58.2813C468.152 80.0186 460.12 89.7339 451.726 97.3524C451.227 97.7952 450.742 98.5821 451.251 99.6305C451.764 100.685 452.69 100.801 453.347 100.686C464.566 98.8717 477.206 98.6343 497.882 107.7C508.711 112.427 519.689 118.352 530.757 122.561C551.361 130.403 564.934 124.1 569.887 113.422C577.745 98.6483 575.695 72.2186 563.197 46.0436C546.891 11.8845 518.997 -8.88384 500.902 -0.346723C500.877 -0.336053 500.852 -0.320228 500.828 -0.309557C493.48 2.78567 486.659 10.2841 482.517 23.4172L482.516 23.4224Z" fill="#EFEFEF" fill-opacity="0.4"/>
<path d="M1492.92 775.163C1504.81 778.517 1517.7 780.374 1529.72 783.14C1552.67 788.403 1563.11 796.509 1571.36 805.06C1571.84 805.568 1572.68 806.052 1573.76 805.485C1574.85 804.913 1574.94 803.94 1574.8 803.255C1572.54 791.558 1571.89 778.322 1580.73 756.368C1585.33 744.871 1591.19 733.179 1595.25 721.448C1602.8 699.609 1595.77 685.589 1584.42 680.741C1568.69 672.98 1541.06 675.974 1514.04 689.905C1478.77 708.083 1457.9 737.972 1467.42 756.659C1467.44 756.684 1467.45 756.711 1467.47 756.736C1470.94 764.335 1479.02 771.242 1492.91 775.162L1492.92 775.163Z" fill="#EFEFEF" fill-opacity="0.4"/>
<path d="M1787.87 345.393C1782.76 336.623 1776.23 328.172 1770.72 319.684C1760.18 303.475 1758.63 292.74 1758.62 282.984C1758.63 282.412 1758.41 281.644 1757.45 281.361C1756.48 281.075 1755.87 281.6 1755.57 282.085C1750.26 290.276 1743.13 298.456 1725.46 306.365C1716.22 310.519 1706.13 314.073 1697.07 318.679C1680.22 327.249 1676.41 339.538 1680.34 348.872C1685.2 362.428 1703.19 376.431 1727.02 383.635C1758.12 393.042 1787.39 387.322 1792.38 370.855C1792.4 370.835 1792.4 370.809 1792.4 370.785C1794.67 364.315 1793.83 355.637 1787.87 345.393V345.393Z" fill="#EFEFEF" fill-opacity="0.4"/>
<path d="M84.5525 313.789C93.5862 310.304 102.535 305.426 111.364 301.525C128.226 294.054 138.571 294.222 147.762 295.689C148.3 295.782 149.056 295.692 149.469 294.828C149.885 293.96 149.482 293.308 149.071 292.949C142.16 286.707 135.535 278.756 130.761 260.911C128.247 251.58 126.428 241.538 123.461 232.313C117.94 215.137 106.944 209.687 97.5557 211.983C84.0512 214.508 68.1401 229.324 57.7465 250.68C44.1779 278.548 45.1339 306.982 59.8866 314.184C59.9043 314.197 59.9286 314.202 59.9496 314.211C65.7007 317.323 74.0004 317.853 84.5525 313.789V313.789Z" fill="#EFEFEF" fill-opacity="0.4"/>
<path d="M304.703 615.974L220.738 629.405L227.729 673.107L311.694 659.675L304.703 615.974Z" fill="#EFEFEF" fill-opacity="0.4"/>
<path d="M103.427 497.706L101.041 491.914L105.244 480.366L29.9295 394.311L17.9199 396.942L12.4976 393.806L-7.44156 411.249L83.4882 515.15L103.427 497.706Z" fill="#EFEFEF" fill-opacity="0.4"/>
<path d="M2059.63 362.263L2049.81 359.435L2039.32 342.361L1853.1 351.192L1844.29 369.185L1834.8 372.922L1836.88 416.042L2061.71 405.383L2059.63 362.263Z" fill="#EFEFEF" fill-opacity="0.4"/>
<path d="M377.35 405.302L374.438 396.004L382.506 378.668L277.533 235.109L258.582 237.564L250.613 231.973L217.391 256.311L344.127 429.639L377.35 405.302Z" fill="#EFEFEF" fill-opacity="0.4"/>
<path d="M394.312 489.934L379.495 464.525L132.993 534.719L133.783 564.122L130.996 564.916L133.928 575.217L400.035 499.438L397.103 489.137L394.312 489.934Z" fill="#EFEFEF" fill-opacity="0.4"/>
<path d="M1797.43 1155.11L1834.56 1129.11L1695.42 759.485L1650.36 764.432L1648.79 760.256L1633.35 766.067L1783.55 1165.1L1799 1159.28L1797.43 1155.11Z" fill="#EFEFEF" fill-opacity="0.4"/>
<path d="M381.08 147.812L418.729 126.55L320.648 -237.227L277.408 -236.678L276.3 -240.788L261.098 -236.692L366.985 156.026L382.189 151.922L381.08 147.812Z" fill="#EFEFEF" fill-opacity="0.4"/>
<path d="M110.938 414.095L110.934 414.097L111.254 414.344C111.254 414.344 111.276 414.359 111.287 414.371L166.542 457.054C174.208 465.17 196.276 456.749 215.828 438.244C235.052 420.05 244.69 398.879 237.727 390.455L198.027 332.624C197.843 332.332 197.651 332.049 197.442 331.775L197.416 331.731L197.41 331.734C197.17 331.424 196.92 331.124 196.648 330.836C186.872 320.481 159.503 330.492 135.517 353.194C111.53 375.896 100.013 402.691 109.79 413.046C110.148 413.425 110.53 413.772 110.934 414.097L110.938 414.095Z" fill="#EFEFEF" fill-opacity="0.4"/>
<path d="M319.331 129.515L317.408 128.923L315.25 129.077L313.065 128.57L308.902 127.772L306.86 127.054L304.821 126.875L302.636 126.378L300.681 126.036L298.376 126.32L296.265 125.334L294.257 125.001L292.215 125.003L290.022 124.826L287.84 124.387L285.815 123.83L283.656 123.83L281.482 123.258L279.475 123.09L277.276 122.502L275.265 122.255L273.112 121.748L271.056 121.408L269.005 121.314L266.792 120.832L262.632 120.366L260.385 120.219L258.36 119.214L254.273 118.616L252.144 118.2L247.967 117.791L245.878 117.744L243.663 117.327L241.605 117.073L237.527 115.85L235.29 116.184L233.08 115.345L229.024 114.78L226.967 114.723L224.742 114.283L222.628 113.708L220.594 113.316L218.581 112.737L216.418 112.865L212.25 111.822L210.179 111.903L207.912 111.484L205.852 111.305L203.685 110.936L201.605 110.234L199.56 110.102L197.362 109.669L195.308 109.495L192.965 109.074L191.065 108.211L189.059 108.021L186.823 108.083L184.825 107.302L182.698 107.532L180.493 107.136L178.414 106.892L176.208 106.08L174.307 105.52L172.253 105.564L170.025 105.285L167.992 104.631L165.752 104.864L163.561 103.881L161.617 103.518L159.597 103.51L153.276 102.146L151.012 102.266L149.005 101.432L146.78 101.702L144.758 100.798L142.749 101.009L140.446 100.728L136.222 99.801L134.129 99.4234L132.007 98.9278L129.844 98.8792L127.802 97.9108L125.792 97.6204L121.579 97.4031L119.337 96.7928L117.327 96.5344L115.253 96.5464L113.002 96.0906L110.977 95.3039L108.946 95.3063L104.612 94.7343L102.414 94.0717L100.387 93.6423L98.2484 93.6422L96.1853 92.9026L94.1446 92.8301L91.9263 92.3537L89.7813 92.4122L87.7509 91.6413L85.6047 91.7531L79.3596 90.1197L77.1916 90.2524L74.9894 89.7709L72.9224 89.4419L70.7795 88.9351L66.595 88.6279L64.4482 88.2917L62.2969 87.6781L60.3069 87.4841L58.1412 87.0408L56.1034 86.3605L54.0589 86.2186L49.7713 85.2798L47.7417 85.1862L45.475 84.9646L43.333 84.1753L41.3752 83.9713L39.3088 84.0902L37.0356 83.6872L34.9652 83.5074L32.8078 83.171L30.6984 82.8303L28.5885 82.511L24.3467 81.4345L22.1977 81.4342L20.2064 80.5843L18.058 80.792L13.7797 79.6774L11.7281 79.3753L9.65939 79.3608L7.38943 78.8086L5.33288 78.4905L3.19416 78.0318L1.05149 77.2745L-3.04299 76.9958L-5.19577 76.9262L-7.42049 76.4976L-9.46839 75.5557L-11.4731 75.5427L-15.8293 75.0449L-17.9712 74.7248L-20.1689 74.5208L-22.1946 73.7768L-24.2517 73.7199L-26.4587 73.4517L-30.5963 72.2442L-32.8071 72.3865L-37.0061 71.3004L-39.1201 71.4022L-39.276 71.4574L-50.4297 139.981L308.234 198.339L319.408 129.651L319.331 129.515Z" fill="#EFEFEF" fill-opacity="0.4"/>
<path d="M211.644 744.346C211.644 744.346 209.92 742.343 212.569 740.051C215.212 737.757 232.806 719.318 232.806 719.318C232.806 719.318 234.361 717.439 239.311 719.136C239.311 719.136 268.251 709.07 272.295 709.008C276.34 708.947 294.433 708.307 303.419 710.182C305.061 710.527 306.407 711.396 306.407 711.396C306.407 711.396 324.642 722.767 335.995 734.662C338.06 736.827 349.842 761.595 349.842 761.595C349.842 761.595 353.145 763.526 354.058 764.655C355.446 766.369 353.59 795.85 353.59 795.85C353.59 795.85 353.318 797.829 350.75 797.971L285.966 801.55C285.966 801.55 279.984 802.061 273.543 797.403C267.101 792.745 211.648 744.353 211.648 744.353L211.644 744.346Z" fill="#EFEFEF" fill-opacity="0.4"/>
<path d="M366.244 270.192C366.244 270.192 363.632 269.784 364.164 266.321C364.69 262.862 366.134 237.416 366.134 237.416C366.134 237.416 366.101 234.978 370.97 233.061C370.97 233.061 386.482 206.637 389.522 203.969C392.562 201.3 405.925 189.085 413.983 184.689C415.457 183.888 417.045 183.676 417.045 183.676C417.045 183.676 438.301 180.515 454.656 182.214C457.632 182.523 482.658 193.747 482.658 193.747C482.658 193.747 486.425 193.076 487.852 193.344C490.02 193.75 507.717 217.401 507.717 217.401C507.717 217.401 508.793 219.085 506.929 220.858L459.917 265.576C459.917 265.576 455.693 269.842 447.769 270.471C439.844 271.099 366.251 270.194 366.251 270.194L366.244 270.192Z" fill="#EFEFEF" fill-opacity="0.4"/>
<path d="M273.177 43.0613L273.181 43.0624L273.128 42.6618C273.128 42.6618 273.123 42.6359 273.123 42.6198L263.967 -26.5979C264.242 -37.7585 242.647 -47.3257 215.733 -47.9619C189.272 -48.589 167.518 -40.35 166.527 -29.4654L153.973 39.5479C153.897 39.8851 153.834 40.2216 153.79 40.5632L153.777 40.6124L153.784 40.6144C153.735 41.0035 153.702 41.3929 153.692 41.7884C153.338 56.0251 179.816 68.1973 212.833 68.9781C245.85 69.7589 272.899 58.8512 273.253 44.6146C273.265 44.0935 273.239 43.5782 273.181 43.0624L273.177 43.0613Z" fill="#EFEFEF" fill-opacity="0.4"/>
<path d="M1658.9 479.253L1659.08 479.644L1659.09 479.68L1690.09 546.726C1693.31 558.088 1718.18 560.987 1745.64 553.192C1772.63 545.534 1792.07 530.406 1789.65 519.102L1780.71 445.463C1780.68 445.098 1780.64 444.739 1780.58 444.377L1780.58 444.32C1780.5 443.911 1780.42 443.505 1780.3 443.108C1776.18 428.619 1745.55 424.614 1711.88 434.17C1678.2 443.723 1654.24 463.214 1658.35 477.704C1658.5 478.236 1658.69 478.751 1658.91 479.246L1658.9 479.253Z" fill="#EFEFEF" fill-opacity="0.4"/>
<path d="M2016.25 670.638L2004.96 653.988L1818.88 671.158L1810.88 689.582L1805.59 736.897L2030.25 716.173L2016.25 670.638Z" fill="#EFEFEF" fill-opacity="0.4"/>
<path d="M1756.56 802.716C1756.56 802.716 1755.71 800.076 1759.21 798.952C1762.7 797.825 1787.24 787.26 1787.24 787.26C1787.24 787.26 1789.51 786.087 1793.59 789.755C1793.59 789.755 1825.63 791.924 1829.56 793.525C1833.49 795.125 1851.2 801.935 1859.1 807.432C1860.54 808.439 1861.48 809.829 1861.48 809.829C1861.48 809.829 1874.4 828.281 1880.47 844.415C1881.58 847.35 1882.77 876.076 1882.77 876.076C1882.77 876.076 1885.17 879.295 1885.59 880.758C1886.22 882.982 1872.33 910.656 1872.33 910.656C1872.33 910.656 1871.26 912.454 1868.72 911.536L1804.76 888.398C1804.76 888.398 1798.78 886.435 1794.48 879.298C1790.18 872.161 1756.56 802.724 1756.56 802.724L1756.56 802.716Z" fill="#EFEFEF" fill-opacity="0.4"/>
<path d="M1753.87 665.186L1746.61 658.672L1744.75 639.533L1580.98 569.7L1565.88 581.591L1556.15 580.87L1539.89 619.009L1737.58 703.338L1753.87 665.186Z" fill="#EFEFEF" fill-opacity="0.4"/>
<path d="M1616.7 964.395L1616.71 964.397L1616.75 963.975C1616.75 963.975 1616.75 963.948 1616.75 963.931L1624.02 891.103C1626.97 879.781 1607.23 864.837 1579.92 857.731C1553.07 850.742 1528.9 853.931 1525.27 864.8L1495.91 932.211C1495.75 932.537 1495.6 932.865 1495.47 933.203L1495.45 933.25L1495.46 933.254C1495.31 933.639 1495.19 934.029 1495.08 934.43C1491.3 948.872 1515.4 967.646 1548.91 976.364C1582.41 985.082 1612.63 980.441 1616.41 965.998C1616.54 965.469 1616.64 964.937 1616.71 964.397L1616.7 964.395Z" fill="#EFEFEF" fill-opacity="0.4"/>
<path d="M1452.99 964.056L1446.14 945.139L1261.56 915.974L1249.27 931.862L1232.49 976.418L1455.35 1011.64L1452.99 964.056Z" fill="#EFEFEF" fill-opacity="0.4"/>
<path d="M1538.59 1091.67C1538.59 1091.67 1536.64 1089.71 1539.24 1087.12C1541.84 1084.52 1558.89 1063.95 1558.89 1063.95C1558.89 1063.95 1560.37 1061.88 1565.67 1063.29C1565.67 1063.29 1595.2 1050.65 1599.43 1050.28C1603.65 1049.92 1622.52 1047.93 1632.06 1049.24C1633.8 1049.48 1635.27 1050.29 1635.27 1050.29C1635.27 1050.29 1655.17 1060.84 1667.91 1072.45C1670.23 1074.56 1684.36 1099.6 1684.36 1099.6C1684.36 1099.6 1687.96 1101.38 1689 1102.49C1690.57 1104.18 1690.79 1135.15 1690.79 1135.15C1690.79 1135.15 1690.65 1137.24 1687.97 1137.57L1620.49 1146.06C1620.49 1146.06 1614.27 1147.03 1607.2 1142.63C1600.12 1138.23 1538.59 1091.68 1538.59 1091.68L1538.59 1091.67Z" fill="#EFEFEF" fill-opacity="0.4"/>
</g>
<defs>
<clipPath id="clip0_1059_803">
<rect width="1920" height="1080" fill="white"/>
</clipPath>
</defs>
</svg>
