<svg id="Layer_3" data-name="Layer 3" xmlns="http://www.w3.org/2000/svg" viewBox="0 0 2880 1465"><defs><style>.cls-1{opacity:0.5;}.cls-2{fill:#270014;}</style></defs><g class="cls-1"><path class="cls-2" d="M2705,549.79c24.2,18.6,15.23,64.14-38.54,76-18,4-36.78,5.55-54.71,8.61-34.27,5.79-52.21,17.2-67.29,29.52a2.56,2.56,0,0,1-4.06-3.12c8-17.74,14.43-38,11.22-72.62-1.66-18.11-5-36.66-5.78-55.09-2.38-55,39.33-75.39,63.52-56.8Z"/></g><g class="cls-1"><path class="cls-2" d="M2336.91,713.12c-63.83,30.37-128.36,35.28-164.21,16-25.67-12.17-40.74-44.93-21.9-94.47,10.19-26.79,24.53-53.36,36-79.56,21.94-50,21.3-80.62,16.84-107.77a4.66,4.66,0,0,1,8.1-3.93c18.55,20.32,42.2,39.75,95.05,53.51,27.66,7.24,57.4,12.43,84.75,21,32.53,10.22,50.92,27.15,58.21,45.3C2469.57,607,2419.35,673.9,2336.91,713.12Z"/></g><g class="cls-1"><path class="cls-2" d="M2411.33,446.47c-24.69,6.95-50.85-22-31.81-64.15,6.38-14.13,14.76-27.56,21.72-41.17,13.32-26,14.65-43.8,13.94-60.15a2.15,2.15,0,0,1,4.14-1.16c7.91,14.32,18.35,28.82,43.26,44.05,13,8,27.19,15.08,40,23.8,38.24,26.05,31,64.39,6.32,71.33Z"/></g><g class="cls-1"><path class="cls-2" d="M2663.24,134.72c24.24,8.4,29.17,47.1-10.55,70.82-13.31,8-27.86,14.18-41.35,21.38-25.78,13.71-37.05,27.57-45.81,41.39a2.15,2.15,0,0,1-4.06-1.41c1.68-16.27,1.41-34.14-10.33-60.87-6.13-14-13.7-27.91-19.23-42.4-16.49-43.22,11.36-70.54,35.57-62.14Z"/></g><g class="cls-1"><path class="cls-2" d="M2875.45,406.81c-13.35,36-79.42,45.46-148,21.09-53-18.83-92.11-52.38-101.43-83.43a.44.44,0,0,1,0-.15c-7.54-21.3,2.45-48.17,40.9-65.43,20.81-9.35,43.85-16.23,65-24.55,40.53-15.82,57.4-33.4,70.17-51.21a3.71,3.71,0,0,1,6.77,2.35c-1,21.89,1.39,46.15,23.4,83.66,11.49,19.65,25.32,39.32,35.89,59.55C2880.63,372.66,2881.49,392.49,2875.45,406.81Z"/></g><g class="cls-1"><path class="cls-2" d="M2912.51,220.44c-12.27,20.75-48.82,18.06-63.25-22.94-4.84-13.74-7.86-28.3-12-42.06-7.82-26.31-18.48-39.27-29.57-49.92a2,2,0,0,1,2.06-3.48c14.67,4.59,31.17,7.68,58,1.85,14-3,28.26-7.4,42.63-9.79,42.88-7.11,62.85,23.63,50.59,44.36Z"/></g><g class="cls-1"><path class="cls-2" d="M506.18,1125.83c24.21,18.6,15.23,64.15-38.53,76-18,4-36.78,5.54-54.71,8.6-34.27,5.79-52.21,17.21-67.29,29.52a2.56,2.56,0,0,1-4.06-3.12c8-17.74,14.43-38,11.21-72.61-1.65-18.12-5-36.66-5.77-55.1-2.38-55,39.33-75.39,63.51-56.8Z"/></g><g class="cls-1"><path class="cls-2" d="M138.09,1289.16c-63.83,30.37-128.36,35.28-164.21,16-25.67-12.17-40.74-44.93-21.9-94.47,10.19-26.79,24.53-53.36,36-79.56,21.94-50,21.3-80.62,16.84-107.77a4.46,4.46,0,0,1,2.56-5.08,4.44,4.44,0,0,1,5.54,1.15c18.55,20.32,42.2,39.75,95.05,53.51,27.66,7.24,57.4,12.43,84.75,21,32.53,10.22,50.92,27.15,58.21,45.3C270.75,1183,220.53,1249.94,138.09,1289.16Z"/></g><g class="cls-1"><path class="cls-2" d="M212.51,1022.52c-24.69,6.94-50.85-22-31.81-64.16,6.38-14.12,14.76-27.55,21.71-41.17,13.33-26,14.66-43.8,14-60.14a2.15,2.15,0,0,1,4.14-1.17c7.91,14.32,18.35,28.82,43.26,44,13,8,27.19,15.08,40,23.81,38.23,26,31,64.38,6.32,71.32Z"/></g><g class="cls-1"><path class="cls-2" d="M464.42,710.76c24.23,8.41,29.16,47.1-10.56,70.82-13.3,7.95-27.85,14.18-41.34,21.38-25.78,13.71-37.06,27.57-45.81,41.39a2.15,2.15,0,0,1-4.07-1.41c1.69-16.27,1.42-34.14-10.32-60.87-6.13-14-13.7-27.91-19.23-42.39-16.49-43.23,11.35-70.55,35.57-62.15Z"/></g><g class="cls-1"><path class="cls-2" d="M676.63,982.85c-13.35,36-79.42,45.46-148,21.09-53-18.83-92.11-52.38-101.43-83.43a.44.44,0,0,1-.05-.15c-7.54-21.3,2.45-48.17,40.9-65.43,20.81-9.35,43.85-16.23,65-24.55,40.53-15.82,57.4-33.4,70.17-51.21a3.71,3.71,0,0,1,6.77,2.35c-1,21.89,1.39,46.15,23.4,83.66,11.49,19.65,25.32,39.32,35.89,59.55C681.81,948.7,682.67,968.53,676.63,982.85Z"/></g><g class="cls-1"><path class="cls-2" d="M721.43,802.42c-11.74,19.85-46.72,17.28-60.53-22-4.63-13.14-7.52-27.08-11.46-40.25C642,715,631.76,702.63,621.15,692.44a1.94,1.94,0,0,1,2-3.33c14,4.4,29.83,7.35,55.49,1.77,13.43-2.9,27-7.08,40.79-9.37,41-6.81,60.14,22.61,48.41,42.45Z"/></g></svg>