<svg width="1920" height="1080" viewBox="0 0 1920 1080" fill="none" xmlns="http://www.w3.org/2000/svg">
<g clip-path="url(#clip0_1053_1107)">
<path d="M164.35 494L162.02 495.3L160.19 497.51L157.7 499.14L153.12 502.4L150.56 503.7L148.52 505.49L146.04 507.13L143.92 508.69L142.08 511.16L139.2 512.28L137.04 513.9L135.17 515.86L132.99 517.8L130.57 519.49L128.18 520.92L126.2 522.99L123.66 524.55L121.66 526.32L119.08 527.89L117 529.59L114.54 531.19L112.33 532.85L110.36 534.73L107.87 536.41L103.61 539.97L101.41 541.99L98.59 543.01L94.27 546.38L91.92 548.04L87.7 551.67L85.74 553.63L83.31 555.37L81.18 557.11L76.27 559.9L74.54 562.35L71.71 563.7L67.45 567.07L65.51 568.99L63.05 570.72L60.56 572.22L58.32 573.81L55.92 575.21L54.06 577.4L49.24 580.44L47.42 582.5L44.94 584.29L42.88 586.1L40.54 587.84L37.96 589.19L35.96 591.03L33.53 592.74L31.48 594.55L28.93 596.41L26.36 597.44L24.34 599.19L22.35 601.39L19.77 602.59L18.04 604.84L15.64 606.59L13.5 608.36L10.7 609.73L8.42001 611.04L6.58002 613.05L4.27002 614.93L1.78 616.28L-0.0499878 618.64L-3 619.84L-5.13 621.37L-6.98999 623.3L-14.09 628.11L-16.05 630.39L-18.69 631.55L-20.47 633.93L-23.19 635.04L-24.83 637.16L-27.21 639.11L-31.97 642.31L-34.25 643.97L-36.67 645.55L-38.7 647.58L-41.5 648.65L-43.62 650.31L-47.69 654.15L-50.33 655.74L-52.42 657.43L-54.31 659.43L-56.81 661.17L-59.42 662.39L-61.28 664.34L-65.8 667.97L-68.45 669.47L-70.72 671.02L-72.68 673.07L-75.28 674.37L-77.22 676.26L-79.71 677.95L-81.62 680.06L-84.22 681.3L-86.08 683.46L-93.37 687.95L-95.23 690.15L-97.71 691.82L-99.92 693.5L-102.37 695.09L-106.5 698.82L-108.79 700.57L-111.35 702.07L-113.36 703.8L-115.77 705.47L-118.29 706.8L-120.3 708.63L-125.13 711.88L-127.08 713.74L-129.37 715.71L-132.09 717.04L-134.08 718.73L-135.86 720.82L-138.33 722.63L-140.4 724.45L-142.7 726.21L-144.96 727.92L-147.2 729.65L-152.12 732.73L-154.09 734.79L-156.73 735.92L-158.5 738.17L-163.49 741.25L-165.66 742.94L-167.57 744.91L-170.18 746.58L-172.37 748.26L-174.77 749.89L-177.46 751.25L-181.48 754.92L-183.52 756.92L-185.97 758.66L-188.75 759.76L-190.6 761.67L-195.07 765.39L-197.34 767.15L-199.55 769.07L-202.12 770.33L-204.06 772.25L-206.34 774.12L-211.29 776.98L-213.18 779.23L-218.07 782.26L-219.91 784.38L-220 784.58L-164.53 858.08L220.16 567.72L164.55 494.05L164.35 494Z" fill="#3E000A" fill-opacity="0.9"/>
<path d="M421.573 588.487L393.761 561.128L102.728 736.805L113.977 774.161L110.687 776.148L118.027 788.31L432.207 598.658L424.868 586.495L421.573 588.487Z" fill="#3E000A" fill-opacity="0.9"/>
<path d="M464.659 897.77L435.509 830L-198.864 929.874L-205.826 1003.32L-213 1004.45L-208.832 1031L476 923.18L471.832 896.639L464.659 897.77Z" fill="#3E000A" fill-opacity="0.9"/>
<path d="M2047.96 1009.94L2073.6 958.644L1696 631.314L1648.86 663.98L1644.59 660.282L1630.91 676.058L2038.55 1029.43L2052.23 1013.64L2047.96 1009.94Z" fill="#3E000A" fill-opacity="0.9"/>
<path d="M2001.09 872.774L2041.87 832.452L1789.67 401.038L1734.52 416.799L1731.67 411.925L1713.64 422.461L1985.91 888.195L2003.94 877.649L2001.09 872.774Z" fill="#3E000A" fill-opacity="0.9"/>
</g>
<defs>
<clipPath id="clip0_1053_1107">
<rect width="1920" height="1080" fill="white"/>
</clipPath>
</defs>
</svg>
